 <svg  version="1.0" xmlns="http://www.w3.org/2000/svg"  width="211.000000pt" height="196.000000pt" viewBox="0 0 211.000000 196.000000"  preserveAspectRatio="xMidYMid meet">  <g transform="translate(0.000000,196.000000) scale(0.100000,-0.100000)" fill="#8b008b" stroke="none"> <path d="M1042 1589 c-5 -13 -42 -126 -83 -251 l-74 -228 -279 0 -279 0 34 -23 c19 -13 120 -85 225 -160 l191 -137 -83 -251 c-46 -138 -84 -253 -84 -255 0 -7 40 20 248 169 106 75 194 137 197 137 3 0 91 -62 197 -138 214 -152 248 -175 248 -167 0 6 -49 153 -60 180 -4 11 -30 89 -58 173 l-49 152 201 143 c110 79 212 151 226 160 23 16 9 17 -255 17 l-280 0 -79 243 c-44 133 -83 246 -87 251 -5 5 -12 -2 -17 -15z"/> </g> </svg> 