<?xml version="1.0" standalone="no"?>
<!DOCTYPE svg PUBLIC "-//W3C//DTD SVG 20010904//EN"
 "http://www.w3.org/TR/2001/REC-SVG-20010904/DTD/svg10.dtd">
<svg version="1.0" xmlns="http://www.w3.org/2000/svg"
 width="135.000000pt" height="130.000000pt" viewBox="0 0 135.000000 130.000000"
 preserveAspectRatio="xMidYMid meet">
<metadata>
Created by potrace 1.10, written by Peter Selinger 2001-2011
</metadata>
<g transform="translate(0.000000,130.000000) scale(0.100000,-0.100000)"
fill="#8b008b" stroke="none">
<path d="M573 1220 c-230 -42 -422 -214 -484 -435 -7 -27 -14 -88 -14 -135 0
-146 52 -273 156 -384 73 -78 146 -125 254 -162 68 -23 96 -27 190 -27 94 0
122 4 190 27 44 15 105 43 135 61 115 70 216 203 258 339 20 68 20 225 -1 294
-42 138 -148 274 -268 344 -113 66 -293 100 -416 78z"/>
</g>
</svg>
