<?xml version="1.0" standalone="no"?>
<!DOCTYPE svg PUBLIC "-//W3C//DTD SVG 20010904//EN"
 "http://www.w3.org/TR/2001/REC-SVG-20010904/DTD/svg10.dtd">
<svg version="1.0" xmlns="http://www.w3.org/2000/svg"
 width="150.000000pt" height="139.000000pt" viewBox="0 0 150.000000 139.000000"
 preserveAspectRatio="xMidYMid meet">
<metadata>
Created by potrace 1.10, written by Peter Selinger 2001-2011
</metadata>
<g transform="translate(0.000000,139.000000) scale(0.100000,-0.100000)"
fill="#8b008b" stroke="none">
<path d="M687 965 l-58 -175 -197 -2 -197 -3 155 -109 c85 -61 157 -111 159
-112 2 -2 -24 -84 -57 -183 -33 -100 -58 -181 -56 -181 3 0 75 49 160 110
l154 110 155 -110 c85 -61 156 -110 159 -110 2 0 -23 81 -56 181 -33 99 -59
181 -57 183 2 1 74 51 159 112 l155 109 -197 3 -197 2 -58 175 c-31 96 -60
175 -63 175 -3 0 -32 -79 -63 -175z"/>
</g>
</svg>
