<?xml version="1.0" standalone="no"?>
<!DOCTYPE svg PUBLIC "-//W3C//DTD SVG 20010904//EN"
 "http://www.w3.org/TR/2001/REC-SVG-20010904/DTD/svg10.dtd">
<svg version="1.0" xmlns="http://www.w3.org/2000/svg"
 width="150.000000pt" height="139.000000pt" viewBox="0 0 150.000000 139.000000"
 preserveAspectRatio="xMidYMid meet">
<metadata>
Created by potrace 1.10, written by Peter Selinger 2001-2011
</metadata>
<g transform="translate(0.000000,139.000000) scale(0.100000,-0.100000)"
fill="#000000" stroke="none">
<path d="M685 970 l-59 -180 -198 -2 -198 -3 159 -113 159 -112 -59 -177 c-32
-98 -58 -181 -57 -184 2 -4 72 42 156 102 84 60 157 109 162 109 5 0 78 -49
162 -109 84 -60 154 -106 156 -102 1 3 -25 86 -57 184 l-59 177 159 112 159
113 -198 3 -198 2 -59 180 c-33 99 -62 180 -65 180 -3 0 -32 -81 -65 -180z"/>
</g>
</svg>
