<?xml version="1.0" encoding="UTF-8"?>
<svg version="1.1" xmlns="http://www.w3.org/2000/svg" width="275" height="253">
<path d="M0 0 C2.36229303 2.36229303 2.84680754 4.06317629 3.88842773 7.22705078 C4.25352951 8.32585571 4.61863129 9.42466064 4.99479675 10.5567627 C5.38709976 11.75748413 5.77940277 12.95820557 6.18359375 14.1953125 C6.81429585 16.1001323 7.44500036 18.0049513 8.07581806 19.90973282 C8.74373512 21.93024421 9.40874471 23.95169098 10.07287598 25.97344971 C12.10848364 32.170042 14.16020549 38.36130237 16.21094894 44.55289841 C16.88580207 46.59098159 17.55993153 48.62930324 18.23403931 50.66763306 C22.08754327 62.31054269 26.04824201 73.91454562 30.10327148 85.48876953 C30.49716064 86.61911621 30.8910498 87.74946289 31.296875 88.9140625 C31.63041992 89.8623291 31.96396484 90.8105957 32.30761719 91.78759766 C33 94 33 94 33 96 C67.65 96 102.3 96 138 96 C134.76485078 99.23514922 132.35148395 101.64059046 128.734375 104.12890625 C127.93580078 104.68255859 127.13722656 105.23621094 126.31445312 105.80664062 C125.46818359 106.38607422 124.62191406 106.96550781 123.75 107.5625 C121.94247246 108.81346133 120.1351845 110.0647689 118.328125 111.31640625 C117.42771484 111.93789551 116.52730469 112.55938477 115.59960938 113.19970703 C111.88169417 115.7744541 108.18991132 118.38535604 104.5 121 C98.34618111 125.35179549 92.17669349 129.68074124 86 134 C79.51685734 138.53600643 73.03422396 143.07271123 66.5625 147.625 C65.87091797 148.1096875 65.17933594 148.594375 64.46679688 149.09375 C63.81904297 149.55007812 63.17128906 150.00640625 62.50390625 150.4765625 C61.94517822 150.86924316 61.3864502 151.26192383 60.81079102 151.66650391 C58.48628803 153.37830589 56.24553691 155.18636182 54 157 C56.37219021 164.14676889 58.74746007 171.29250903 61.125 178.4375 C61.48192932 179.51023163 61.83885864 180.58296326 62.206604 181.6882019 C67.93709412 198.90131672 73.75014827 216.08455971 79.65673828 233.23803711 C79.93575989 234.05033783 80.21478149 234.86263855 80.5022583 235.69955444 C81.01575919 237.19418302 81.5307168 238.68831241 82.04754639 240.18179321 C83.50431787 244.42433754 84.80320715 248.67910698 86 253 C81.52504203 251.49996727 78.08596114 249.01741292 74.375 246.1875 C68.57659749 241.84755588 62.68442458 237.68589025 56.6875 233.625 C49.72927104 228.90339446 42.8787667 224.0593733 36.08227539 219.10839844 C28.670084 213.72508859 21.14726805 208.50413666 13.61425781 203.29174805 C12.68194336 202.64633057 11.74962891 202.00091309 10.7890625 201.3359375 C9.96100098 200.76407715 9.13293945 200.1922168 8.27978516 199.60302734 C6 198 6 198 3.95068359 196.22900391 C2.10837261 194.80414754 2.10837261 194.80414754 0.05151367 195.11401367 C-2.48251322 196.20838278 -4.56703214 197.58330635 -6.82421875 199.17578125 C-7.76185059 199.83288086 -8.69948242 200.48998047 -9.66552734 201.16699219 C-10.66277832 201.87500977 -11.6600293 202.58302734 -12.6875 203.3125 C-13.7182666 204.03727539 -14.7490332 204.76205078 -15.81103516 205.50878906 C-18.87795788 207.66701157 -21.93932147 209.83293531 -25 212 C-26.56600823 213.10342968 -28.13237288 214.20635383 -29.69921875 215.30859375 C-33.13149036 217.7249035 -36.55918979 220.14758937 -39.98486328 222.57324219 C-43.42577353 225.00947668 -46.8688197 227.44268308 -50.3125 229.875 C-51.33935913 230.60046021 -51.33935913 230.60046021 -52.38696289 231.34057617 C-59.04305745 236.03867919 -65.71968783 240.70737276 -72.40161133 245.36865234 C-73.2036499 245.92891113 -74.00568848 246.48916992 -74.83203125 247.06640625 C-75.54077393 247.56084229 -76.2495166 248.05527832 -76.97973633 248.56469727 C-79.01326718 250.00942571 -81.01110139 251.49457822 -83 253 C-83.66 252.67 -84.32 252.34 -85 252 C-76.92470176 227.66313395 -68.79548889 203.34672709 -60.48193359 179.09008789 C-60.20229767 178.27413651 -59.92266174 177.45818512 -59.634552 176.61750793 C-59.12060971 175.11863437 -58.60623159 173.61991012 -58.09127808 172.12138367 C-56.3647445 167.09062204 -54.67500308 162.04814313 -53 157 C-61.79221004 150.0072728 -70.88059074 143.58741682 -80.17578125 137.28515625 C-85.33356678 133.78534041 -90.42612867 130.19812624 -95.51025391 126.5925293 C-100.17570289 123.28490253 -104.85786655 120.00250301 -109.55004883 116.73291016 C-116.6591496 111.77601938 -123.74535169 106.79127438 -130.75 101.6875 C-131.38824707 101.22529053 -132.02649414 100.76308105 -132.68408203 100.28686523 C-134.1420251 99.2170652 -135.57433439 98.1124512 -137 97 C-137 96.67 -137 96.34 -137 96 C-102.35 96 -67.7 96 -32 96 C-31.01 92.37 -30.02 88.74 -29 85 C-28.13133617 82.25708174 -27.24800341 79.53187434 -26.3203125 76.80981445 C-26.07110046 76.07003357 -25.82188843 75.33025269 -25.56512451 74.5680542 C-24.7548503 72.16540295 -23.94003444 69.76432145 -23.125 67.36328125 C-22.55330564 65.67189084 -21.98185828 63.98041692 -21.41064453 62.28886414 C-20.2190937 58.7624621 -19.02543637 55.23678313 -17.83007812 51.71166992 C-16.30388337 47.21076135 -14.78168335 42.70851491 -13.26089478 38.20577717 C-12.08324243 34.71970512 -10.90414406 31.23412362 -9.72454834 27.74870872 C-9.16293742 26.08914045 -8.60161245 24.42947538 -8.04058838 22.76970863 C-7.25498018 20.44667678 -6.46759067 18.12425628 -5.6796875 15.80200195 C-5.33825714 14.79105721 -5.33825714 14.79105721 -4.9899292 13.75968933 C-3.41847009 9.13647721 -1.73206746 4.56553926 0 0 Z " fill="#000000" transform="translate(137,0)"/>
</svg>
