<?xml version="1.0" standalone="no"?>
<!DOCTYPE svg PUBLIC "-//W3C//DTD SVG 20010904//EN"
 "http://www.w3.org/TR/2001/REC-SVG-20010904/DTD/svg10.dtd">
<svg version="1.0" xmlns="http://www.w3.org/2000/svg"
 width="150.000000pt" height="139.000000pt" viewBox="0 0 150.000000 139.000000"
 preserveAspectRatio="xMidYMid meet">
<metadata>
Created by potrace 1.10, written by Peter Selinger 2001-2011
</metadata>
<g transform="translate(0.000000,139.000000) scale(0.100000,-0.100000)"
fill="#0e73c0" stroke="none">
<path d="M687 965 l-58 -175 -196 -2 -195 -3 153 -109 c85 -60 156 -111 158
-112 2 -2 -24 -84 -57 -183 -33 -100 -59 -181 -57 -181 3 0 74 50 160 110
l155 111 155 -111 c86 -60 157 -110 160 -110 2 0 -24 81 -57 181 -33 99 -59
182 -57 183 2 2 73 52 158 112 l155 109 -196 3 -197 2 -58 175 c-31 96 -60
175 -63 175 -3 0 -32 -79 -63 -175z"/>
</g>
</svg>
