<?xml version="1.0" standalone="no"?>
<!DOCTYPE svg PUBLIC "-//W3C//DTD SVG 20010904//EN"
 "http://www.w3.org/TR/2001/REC-SVG-20010904/DTD/svg10.dtd">
<svg version="1.0" xmlns="http://www.w3.org/2000/svg"
 width="150.000000pt" height="139.000000pt" viewBox="0 0 150.000000 139.000000"
 preserveAspectRatio="xMidYMid meet">
<metadata>
Created by potrace 1.10, written by Peter Selinger 2001-2011
</metadata>
<g transform="translate(0.000000,139.000000) scale(0.100000,-0.100000)"
fill="#147c0b" stroke="none">
<path d="M687 965 l-58 -175 -202 0 -201 0 150 -106 c82 -58 155 -111 161
-118 10 -9 1 -48 -47 -191 -33 -99 -60 -180 -60 -182 0 -1 69 47 154 107 85
61 160 110 166 110 6 0 81 -49 166 -110 85 -60 154 -108 154 -107 0 2 -27 83
-60 182 -48 143 -57 182 -47 191 6 7 79 60 161 118 l150 106 -201 0 -202 0
-57 175 c-32 96 -61 175 -64 175 -3 0 -32 -79 -63 -175z"/>
</g>
</svg>
