<?xml version="1.0" standalone="no"?>
<!DOCTYPE svg PUBLIC "-//W3C//DTD SVG 20010904//EN"
 "http://www.w3.org/TR/2001/REC-SVG-20010904/DTD/svg10.dtd">
<svg version="1.0" xmlns="http://www.w3.org/2000/svg"
 width="150.000000pt" height="139.000000pt" viewBox="0 0 150.000000 139.000000"
 preserveAspectRatio="xMidYMid meet">
<metadata>
Created by potrace 1.10, written by Peter Selinger 2001-2011
</metadata>
<g transform="translate(0.000000,139.000000) scale(0.100000,-0.100000)"
fill="#000000" stroke="none">
<path d="M686 975 l-60 -185 -198 -2 -199 -3 156 -109 c86 -60 158 -112 160
-115 2 -5 -97 -305 -120 -364 -6 -14 255 164 306 209 15 13 34 2 184 -106 92
-67 164 -113 160 -103 -24 59 -122 359 -120 364 2 3 74 55 160 115 l156 109
-199 3 -198 2 -60 185 c-32 101 -61 184 -64 184 -3 0 -32 -83 -64 -184z m109
-74 c49 -149 52 -151 198 -151 64 0 118 -4 122 -10 3 -5 -25 -31 -62 -57 -92
-65 -133 -106 -133 -134 0 -13 16 -71 34 -129 19 -58 31 -106 26 -108 -6 -2
-47 24 -93 57 -46 33 -96 65 -110 72 -34 16 -54 7 -163 -72 -80 -58 -111 -72
-101 -46 39 105 69 218 63 240 -4 19 -35 49 -101 98 -52 38 -95 74 -95 79 0 6
51 10 122 10 152 0 153 1 203 151 20 60 40 109 45 109 5 0 25 -49 45 -109z"/>
</g>
</svg>
